<svg width="6" height="506" viewBox="0 0 6 506" fill="none" xmlns="http://www.w3.org/2000/svg">
<path d="M3 0.333333C1.52724 0.333333 0.333333 1.52724 0.333333 3C0.333333 4.47276 1.52724 5.66667 3 5.66667C4.47276 5.66667 5.66667 4.47276 5.66667 3C5.66667 1.52724 4.47276 0.333333 3 0.333333ZM3.00002 500.333C1.52726 500.333 0.333355 501.527 0.333355 503C0.333355 504.473 1.52726 505.667 3.00002 505.667C4.47278 505.667 5.66669 504.473 5.66669 503C5.66669 501.527 4.47278 500.333 3.00002 500.333ZM2.5 3L2.50002 503L3.50002 503L3.5 3L2.5 3Z" fill="black"/>
</svg>
